# xmcd
#
# Track frame offsets:
#	150
#	23383
#	43263
#	59307
#	77561
#	92526
#	108173
#	128592
#	144074
#	162121
#	181737
#	197170
#
# Disc length: 2912 seconds
#
# Revision: 1
# Processed by: cddbd v1.5.2PL0 Copyright (c) Steve Scherf et al.
# Submitted via: audiograbber 1.83.01
#
DISCID=850b5e0c
DTITLE=Леонид Агутин - Любовь. Дорога. Грусть и Радость
DYEAR=2007
DGENRE=Pop
TTITLE0=Игрушки
TTITLE1=Не уходи далеко
TTITLE2=Белиберда
TTITLE3=Две дороги, два пути
TTITLE4=Прочитай между строк
TTITLE5=Женщинам
TTITLE6=Платье невесты
TTITLE7=Колыбельная
TTITLE8=Памяти Карузо (версия)
TTITLE9=Зимняя вишня (новая версия)
TTITLE10=По дороге на Юг
TTITLE11=Аэропорты
EXTD=
EXTT0=
EXTT1=
EXTT2=
EXTT3=
EXTT4=
EXTT5=
EXTT6=
EXTT7=
EXTT8=
EXTT9=
EXTT10=
EXTT11=
PLAYORDER=
